The King's Speech (2011)(17-2 Bios)(DivX)(nl subs) NTSC TBS

*****Vanaf 17 februari in de bioscoop*****


Verenigd Koninkrijk / Australië
Drama
118 minuten

geregisseerd door Tom Hooper
met Colin Firth, Helena Bonham Carter en Geoffrey Rush

Nadat zijn broer aftreedt wordt George nogal ongewild de nieuwe Koning van Engeland en gaat door het leven als George VI. Helaas heeft hij een probleem met 
zijn trillende stembanden, wat niet echt Koninklijk overkomt. Hiervoor schakelt hij de hulp in van de onorthodoxe spraaktherapeut Lionel Logue wat resulteert 
in een reeks ongewone technieken en een bijzondere vriendschap.

Storyline

Tells the story of the man who became King George VI, the father of Queen Elizabeth II. After his brother abdicates, George ('Bertie') reluctantly assumes 
the throne. Plagued by a dreaded stammer and considered unfit to be king, Bertie engages the help of an unorthodox speech therapist named Lionel Logue. 
Through a set of unexpected techniques, and as a result of an unlikely friendship, Bertie is able to find his voice and boldly lead the country through war.

screens:
 
http://bayimg.com/jAdDbAaDi
 
http://bayimg.com/JaddDAadi
 
http://bayimg.com/JadDeaaDi


Info

The Kings Speech 2010 DVDSCR XviD AC3-NYDIC
Source: DVDR
GENRE: Drama / History
SIZE 1.36GB
Video: 1184 kbps XviD 
AUDiO: 448 kbps AC3 -5.1
RESOLUTION: 720 x 304 
RUNTiME: 1hr 58mn 
LANGUAGE: ENGLiSH 
SUBTiTLES: Dutch srt
Categorie : Beeld 
Formaat : DivX 
Cover : Yes
Subs Dutch (lossles) 
Ondertitels : Nederlands (extern)
Thanks : Hannes3

General

Format                           : AVI
Format/Info                      : Audio Video Interleave
File size                        : 1.36 GiB
Duration                         : 1h 58mn
Overall bit rate                 : 1 644 Kbps
Writing library                  : VirtualDub build 32706/release

Video
ID                               : 0
Format                           : MPEG-4 Visual
Format profile                   : Advanced Simple@L5
Format settings, BVOP            : Yes
Format settings, QPel            : No
Format settings, GMC             : No warppoints
Format settings, Matrix          : Default (H.263)
Muxing mode                      : Packed bitstream
Codec ID                         : XVID
Codec ID/Hint                    : XviD
Duration                         : 1h 58mn
Bit rate                         : 1 184 Kbps
Width                            : 720 pixels
Height                           : 400 pixels
Display aspect ratio             : 16:9
Frame rate                       : 29.970 fps
Color space                      : YUV
Chroma subsampling               : 4:2:0
Bit depth                        : 8 bits
Scan type                        : Progressive
Bits/(Pixel*Frame)               : 0.137
Stream size                      : 1 004 MiB (72%)
Writing library                  : XviD 1.2.1 (UTC 2008-12-04)

Audio
ID                               : 1
Format                           : AC-3
Format/Info                      : Audio Coding 3
Mode extension                   : CM (complete main)
Codec ID                         : 2000
Duration                         : 1h 58mn
Bit rate mode                    : Constant
Bit rate                         : 448 Kbps
Channel(s)                       : 6 channels
Channel positions                : Front: L C R, Side: L R, LFE
Sampling rate                    : 48.0 KHz
Bit depth                        : 16 bits
Stream size                      : 380 MiB (27%)
Alignment                        : Aligned on interleaves
Interleave, duration             : 33 ms (1.00 video frame)
Interleave, preload duration     : 512 ms
  
 
 
http://www.moviemeter.nl/film/66831   
http://www.imdb.com/title/tt1504320 


Black-Sam